<svg width="20" height="20" viewBox="0 0 20 20" fill="none" xmlns="http://www.w3.org/2000/svg">
<path d="M10.8385 12.7208L12.6027 10.1041M12.6027 10.1041L12.8118 9.79577C12.9465 9.59168 13.1336 9.42753 13.3534 9.32052C13.5733 9.21351 13.8179 9.16757 14.0616 9.1875C14.3054 9.20743 14.5392 9.29251 14.7388 9.43383C14.9384 9.57514 15.0963 9.7675 15.196 9.99077L17.3593 14.6083C17.806 15.5599 17.1343 16.6666 16.1118 16.6666H3.88849C2.86849 16.6666 2.19683 15.5666 2.63766 14.6149L7.47766 4.14827C7.5857 3.90372 7.76306 3.69619 7.9878 3.55137C8.21253 3.40655 8.4748 3.33078 8.74214 3.33344C9.00949 3.3361 9.27019 3.41707 9.492 3.56634C9.71382 3.7156 9.88701 3.92661 9.99016 4.17327L12.6027 10.1041Z" stroke="#232323" stroke-width="1.5" stroke-linecap="round" stroke-linejoin="round"/>
</svg>
