<svg width="20" height="20" viewBox="0 0 20 20" fill="none" xmlns="http://www.w3.org/2000/svg">
<path d="M5.0494 17.4271C6.05773 17.8854 7.34107 17.8854 8.3494 17.4271C9.35773 16.9687 10.6411 16.9687 11.6494 17.4271C12.6577 17.8854 13.9411 17.8854 14.9494 17.4271M9.99935 2.5V4.16667M3.33268 10.8333H1.66602M5.26111 6.0951L4.0826 4.91659M14.7373 6.0951L15.9158 4.91659M18.3327 10.8333H16.666M5.83268 10.8333C5.83268 8.53215 7.69816 6.66667 9.99935 6.66667C12.3005 6.66667 14.166 8.53215 14.166 10.8333M1.74943 14.5104C2.75776 14.0521 4.0411 14.0521 5.04943 14.5104C6.05776 14.9688 7.3411 14.9688 8.34943 14.5104C9.35776 14.0521 10.6411 14.0521 11.6494 14.5104C12.6578 14.9688 13.9411 14.9688 14.9494 14.5104C15.9578 14.0521 17.2411 14.0521 18.2494 14.5104" stroke="#232323" stroke-width="1.5" stroke-linecap="round" stroke-linejoin="round"/>
</svg>
