<svg width="20" height="20" viewBox="0 0 20 20" fill="none" xmlns="http://www.w3.org/2000/svg">
<path d="M1.66602 4.99996C2.16602 5.41663 2.66602 5.83329 3.74935 5.83329C5.83268 5.83329 5.83268 4.16663 7.91602 4.16663C8.99935 4.16663 9.49935 4.58329 9.99935 4.99996C10.4993 5.41663 10.9993 5.83329 12.0827 5.83329C14.166 5.83329 14.166 4.16663 16.2493 4.16663C17.3327 4.16663 17.8327 4.58329 18.3327 4.99996M1.66602 15C2.16602 15.4166 2.66602 15.8333 3.74935 15.8333C5.83268 15.8333 5.83268 14.1666 7.91602 14.1666C8.99935 14.1666 9.49935 14.5833 9.99935 15C10.4993 15.4166 10.9993 15.8333 12.0827 15.8333C14.166 15.8333 14.166 14.1666 16.2493 14.1666C17.3327 14.1666 17.8327 14.5833 18.3327 15M1.66602 9.99996C2.16602 10.4166 2.66602 10.8333 3.74935 10.8333C5.83268 10.8333 5.83268 9.16663 7.91602 9.16663C8.99935 9.16663 9.49935 9.58329 9.99935 9.99996C10.4993 10.4166 10.9993 10.8333 12.0827 10.8333C14.166 10.8333 14.166 9.16663 16.2493 9.16663C17.3327 9.16663 17.8327 9.58329 18.3327 9.99996" stroke="#232323" stroke-width="1.5" stroke-linecap="round" stroke-linejoin="round"/>
</svg>
