<svg width="20" height="20" viewBox="0 0 20 20" fill="none" xmlns="http://www.w3.org/2000/svg">
<path d="M7.92375 3.88893C8.22893 3.54796 8.67243 3.33337 9.16604 3.33337C10.0865 3.33337 10.8327 4.07957 10.8327 5.00004C10.8327 5.92052 10.0865 6.66671 9.16604 6.66671H1.66603M10.4238 16.1112C10.7289 16.4521 11.1724 16.6667 11.666 16.6667C12.5865 16.6667 13.3327 15.9205 13.3327 15C13.3327 14.0796 12.5865 13.3334 11.666 13.3334H1.66603M13.9693 5.83337C14.427 5.32192 15.0923 5.00004 15.8327 5.00004C17.2134 5.00004 18.3327 6.11933 18.3327 7.50004C18.3327 8.88075 17.2134 10 15.8327 10H1.66602" stroke="#232323" stroke-width="1.5" stroke-linecap="round" stroke-linejoin="round"/>
</svg>
