<svg width="20" height="20" viewBox="0 0 20 20" fill="none" xmlns="http://www.w3.org/2000/svg">
<path d="M14.9993 6.66671H15.8327C16.7167 6.66671 17.5646 7.0179 18.1897 7.64302C18.8148 8.26814 19.166 9.11599 19.166 10C19.166 10.8841 18.8148 11.7319 18.1897 12.3571C17.5646 12.9822 16.7167 13.3334 15.8327 13.3334H14.9993M14.9993 6.66671H1.66602V14.1667C1.66602 15.0508 2.01721 15.8986 2.64233 16.5237C3.26745 17.1489 4.11529 17.5 4.99935 17.5H11.666C12.5501 17.5 13.3979 17.1489 14.023 16.5237C14.6482 15.8986 14.9993 15.0508 14.9993 14.1667V6.66671ZM4.99935 0.833374V3.33337M8.33268 0.833374V3.33337M11.666 0.833374V3.33337" stroke="#232323" stroke-width="1.5" stroke-linecap="round" stroke-linejoin="round"/>
</svg>
