<svg width="24" height="24" viewBox="0 0 24 24" fill="none" xmlns="http://www.w3.org/2000/svg">
<path d="M7.19961 3.59998C6.24483 3.59998 5.32916 3.97926 4.65403 4.65439C3.97889 5.32952 3.59961 6.2452 3.59961 7.19998V16.8C3.59961 17.7548 3.97889 18.6704 4.65403 19.3456C5.32916 20.0207 6.24483 20.4 7.19961 20.4H16.7996C17.7544 20.4 18.6701 20.0207 19.3452 19.3456C20.0203 18.6704 20.3996 17.7548 20.3996 16.8V7.19998C20.3996 6.2452 20.0203 5.32952 19.3452 4.65439C18.6701 3.97926 17.7544 3.59998 16.7996 3.59998H7.19961ZM4.79961 16.8V9.59998H19.1996V16.8C19.1996 17.4365 18.9468 18.0469 18.4967 18.497C18.0466 18.9471 17.4361 19.2 16.7996 19.2H7.19961C6.56309 19.2 5.95264 18.9471 5.50255 18.497C5.05247 18.0469 4.79961 17.4365 4.79961 16.8ZM19.1996 8.39998H4.79961V7.19998C4.79961 6.56346 5.05247 5.95301 5.50255 5.50292C5.95264 5.05283 6.56309 4.79998 7.19961 4.79998H16.7996C17.4361 4.79998 18.0466 5.05283 18.4967 5.50292C18.9468 5.95301 19.1996 6.56346 19.1996 7.19998V8.39998ZM8.09961 7.49998C8.2178 7.49998 8.33483 7.4767 8.44402 7.43147C8.55322 7.38624 8.65243 7.31994 8.73601 7.23637C8.81958 7.1528 8.88587 7.05358 8.9311 6.94439C8.97633 6.8352 8.99961 6.71817 8.99961 6.59998C8.99961 6.48179 8.97633 6.36475 8.9311 6.25556C8.88587 6.14637 8.81958 6.04715 8.73601 5.96358C8.65243 5.88001 8.55322 5.81371 8.44402 5.76848C8.33483 5.72325 8.2178 5.69998 8.09961 5.69998C7.86091 5.69998 7.632 5.7948 7.46321 5.96358C7.29443 6.13236 7.19961 6.36128 7.19961 6.59998C7.19961 6.83867 7.29443 7.06759 7.46321 7.23637C7.632 7.40515 7.86091 7.49998 8.09961 7.49998ZM15.8996 7.49998C16.0178 7.49998 16.1348 7.4767 16.244 7.43147C16.3532 7.38624 16.4524 7.31994 16.536 7.23637C16.6196 7.1528 16.6859 7.05358 16.7311 6.94439C16.7763 6.8352 16.7996 6.71817 16.7996 6.59998C16.7996 6.48179 16.7763 6.36475 16.7311 6.25556C16.6859 6.14637 16.6196 6.04715 16.536 5.96358C16.4524 5.88001 16.3532 5.81371 16.244 5.76848C16.1348 5.72325 16.0178 5.69998 15.8996 5.69998C15.6609 5.69998 15.432 5.7948 15.2632 5.96358C15.0944 6.13236 14.9996 6.36128 14.9996 6.59998C14.9996 6.83867 15.0944 7.06759 15.2632 7.23637C15.432 7.40515 15.6609 7.49998 15.8996 7.49998ZM12.8996 6.59998C12.8996 6.83867 12.8048 7.06759 12.636 7.23637C12.4672 7.40515 12.2383 7.49998 11.9996 7.49998C11.7609 7.49998 11.532 7.40515 11.3632 7.23637C11.1944 7.06759 11.0996 6.83867 11.0996 6.59998C11.0996 6.36128 11.1944 6.13236 11.3632 5.96358C11.532 5.7948 11.7609 5.69998 11.9996 5.69998C12.2383 5.69998 12.4672 5.7948 12.636 5.96358C12.8048 6.13236 12.8996 6.36128 12.8996 6.59998ZM7.19961 10.8C6.88135 10.8 6.57613 10.9264 6.35108 11.1514C6.12604 11.3765 5.99961 11.6817 5.99961 12V16.8C5.99961 17.1182 6.12604 17.4235 6.35108 17.6485C6.57613 17.8735 6.88135 18 7.19961 18H16.7996C17.1179 18 17.4231 17.8735 17.6481 17.6485C17.8732 17.4235 17.9996 17.1182 17.9996 16.8V12C17.9996 11.6817 17.8732 11.3765 17.6481 11.1514C17.4231 10.9264 17.1179 10.8 16.7996 10.8H7.19961ZM7.19961 16.8V12H16.7996V16.8H7.19961Z" fill="black"/>
</svg>
