<svg width="32" height="32" viewBox="0 0 32 32" fill="none" xmlns="http://www.w3.org/2000/svg">
<g clip-path="url(#clip0_2396_12638)">
<path d="M21.3333 14H15.3333C14.597 14 14 14.597 14 15.3333V21.3333C14 22.0697 14.597 22.6667 15.3333 22.6667H21.3333C22.0697 22.6667 22.6667 22.0697 22.6667 21.3333V15.3333C22.6667 14.597 22.0697 14 21.3333 14Z" stroke="#232323" stroke-linecap="square"/>
<path d="M11.3335 17.9999H10.6668C10.3132 17.9999 9.97407 17.8594 9.72402 17.6094C9.47397 17.3593 9.3335 17.0202 9.3335 16.6666V10.6666C9.3335 10.313 9.47397 9.97382 9.72402 9.72378C9.97407 9.47373 10.3132 9.33325 10.6668 9.33325H16.6668C17.0205 9.33325 17.3596 9.47373 17.6096 9.72378C17.8597 9.97382 18.0002 10.313 18.0002 10.6666V11.3333" stroke="#232323" stroke-miterlimit="16" stroke-linecap="square"/>
</g>
<defs>
<clipPath id="clip0_2396_12638">
<rect width="16" height="16" fill="white" transform="translate(8 8)"/>
</clipPath>
</defs>
</svg>
